# xmcd
#
# Track frame offsets:
#	150
#	14493
#	27810
#	45720
#	59152
#	68779
#	84578
#	97803
#	116746
#	130618
#	140415
#	153882
#	168336
#	186702
#	198324
#	208111
#	219664
#	235137
#
# Disc length: 3308 seconds
#
# Revision: 0
# Processed by: cddbd v1.5.2PL0 Copyright (c) Steve Scherf et al.
# Submitted via: EasyCDDAExtractor 16.0.9.1
#
DISCID=040cea12
DTITLE=Campeão e Camponês - É isso que o povo gosta
DYEAR=2013
DGENRE=Sertanejo
TTITLE0=Ecossistema
TTITLE1=É isso que o povo gosta
TTITLE2=Crime sem culpa
TTITLE3=Viola é tradição
TTITLE4=Pagode bão
TTITLE5=A viola e o cantador
TTITLE6=Amor verdadeiro
TTITLE7=Bate forte coração
TTITLE8=Carreiro apaixonado
TTITLE9=Mulher, bola e viola
TTITLE10=Saudade de Minas Gerais
TTITLE11=Marcas na estrada
TTITLE12=Luar cor de prata
TTITLE13=O homem e a criação
TTITLE14=Que beleza de menina
TTITLE15=Choro da saudade
TTITLE16=Muito rico de amor
TTITLE17=Só quero ser amigo
EXTD=
EXTT0=
EXTT1=
EXTT2=
EXTT3=
EXTT4=
EXTT5=
EXTT6=
EXTT7=
EXTT8=
EXTT9=
EXTT10=
EXTT11=
EXTT12=
EXTT13=
EXTT14=
EXTT15=
EXTT16=
EXTT17=
PLAYORDER=
